<svg width="24" height="24" viewBox="0 0 24 24" xmlns="http://www.w3.org/2000/svg">
  <!-- Lithic tool shape optimized for icon display -->
  <g transform="translate(12, 14) scale(0.10) translate(-247, -235)">
    <path d="m175,290l36,33c0,0 34,6 34,5c0,-1 45,-10 45,-11c0,-1 29,-46 29,-46c0,0 -8,-49 -8,-49c0,0 -25,-44 -25,-44c0,0 -53,-53 -53,-53c0,0 -16,10 -16,12c0,2 -25,42 -25,43c0,1 -18,17 -18,18c0,1 -7,77 -8,77c-1,0 9,15 9,15z" fill="none" stroke="#000000" stroke-width="16"/>
    <path d="m196,177l11,36c0,0 -5,44 -4,44c1,0 6,64 6,64" fill="none" stroke="#000000" stroke-width="16"/>
    <path d="m276,172c-2,0 -12,49 -12,49c0,0 20,69 20,69c0,0 -6,28 -6,28" fill="none" stroke="#000000" stroke-width="16"/>
  </g>
</svg>